<svg width="30" height="30" viewBox="0 0 30 30" fill="none" xmlns="http://www.w3.org/2000/svg">
<path d="M14.4919 28.281H6.6672C4.54071 28.281 2.81533 26.5492 2.81533 24.4291V5.57088C2.81533 3.4444 4.54708 1.71902 6.6672 1.71902H14.6192C15.0967 1.71902 15.4787 1.33701 15.4787 0.859508C15.4787 0.382003 15.0967 0 14.6192 0H6.6672C3.59207 0 1.09631 2.50212 1.09631 5.57088V24.4291C1.09631 27.5042 3.59844 30 6.6672 30H14.4919C14.9694 30 15.3514 29.618 15.3514 29.1405C15.3514 28.663 14.963 28.281 14.4919 28.281Z" fill="#FF0000"/>
<path d="M28.6514 14.3952L23.1888 8.93252C22.8514 8.59508 22.3102 8.59508 21.9728 8.93252C21.6353 9.26996 21.6353 9.81113 21.9728 10.1486L25.9711 14.1469H8.5326C8.0551 14.1469 7.6731 14.5289 7.6731 15.0064C7.6731 15.4839 8.0551 15.8659 8.5326 15.8659H25.9711L21.9728 19.8642C21.6353 20.2016 21.6353 20.7428 21.9728 21.0802C22.1383 21.2458 22.3611 21.3349 22.5776 21.3349C22.7941 21.3349 23.0169 21.2521 23.1824 21.0802L28.6451 15.6176C28.9889 15.2738 28.9889 14.7262 28.6514 14.3952Z" fill="#FF0000"/>
</svg>
